<?xml version="1.0" encoding="UTF-8"?>
<svg id="Layer_1" xmlns="http://www.w3.org/2000/svg" version="1.1" viewBox="0 0 262.9 343">
  <!-- Generator: Adobe Illustrator 29.8.1, SVG Export Plug-In . SVG Version: 2.1.1 Build 2)  -->
  <defs>
    <style>
      .st0 {
        fill: #fff;
      }

      .st1 {
        fill: #45ad58;
      }
    </style>
  </defs>
  <path class="st0" d="M66.1,216.8c33.1,0,60.1,27,60.1,60.1s-27,60.1-60.1,60.1-60.1-27-60.1-60.1,27-60.1,60.1-60.1M66.1,210.8C29.6,210.8,0,240.4,0,276.9s29.6,66.1,66.1,66.1,66.1-29.6,66.1-66.1-29.6-66.1-66.1-66.1h0Z"/>
  <path class="st1" d="M136.8,16c29.4,0,57.1,11.5,77.9,32.3,20.8,20.8,32.3,48.5,32.3,77.9s-11.5,57.1-32.3,77.9c-20.8,20.8-48.5,32.3-77.9,32.3s-57.1-11.5-77.9-32.3c-20.8-20.8-32.3-48.5-32.3-77.9s11.5-57.1,32.3-77.9c20.8-20.8,48.5-32.3,77.9-32.3M136.8,0C67.1,0,10.6,56.5,10.6,126.1s56.5,126.1,126.1,126.1,126.1-56.5,126.1-126.1S206.4,0,136.8,0h0Z"/>
</svg>