<?xml version="1.0" encoding="UTF-8"?>
<svg id="Layer_1" xmlns="http://www.w3.org/2000/svg" version="1.1" viewBox="0 0 185.3 185.2">
  <!-- Generator: Adobe Illustrator 29.8.0, SVG Export Plug-In . SVG Version: 2.1.1 Build 160)  -->
  <defs>
    <style>
      .st0 {
        fill: #0fa84f;
      }
    </style>
  </defs>
  <path class="st0" d="M92.7,185.2c-25.1,0-50.2-10.1-68.4-30.1C7.6,136.8-1,113.2,0,88.4,1.2,63.7,11.9,40.9,30.2,24.2,48.4,7.6,72.1-1,96.8,0c24.7,1.1,47.5,11.8,64.2,30.1,16.7,18.3,25.3,41.9,24.1,66.7-1.1,24.7-11.8,47.5-30.1,64.2-17.7,16.2-40.1,24.2-62.4,24.2ZM92.5,7c-21.4,0-41.8,7.9-57.7,22.4-16.9,15.4-26.8,36.5-27.8,59.4s6.9,44.7,22.3,61.6c16.9,18.5,40,27.8,63.3,27.8,20.6,0,41.3-7.4,57.7-22.4,16.9-15.4,26.8-36.5,27.8-59.4,1-22.9-6.9-44.7-22.3-61.6S119.3,8.1,96.5,7.1c-1.3,0-2.6,0-4,0h0Z"/>
</svg>