<?xml version="1.0" encoding="UTF-8"?>
<svg id="Layer_1" xmlns="http://www.w3.org/2000/svg" version="1.1" viewBox="0 0 342.9 262.9">
  <!-- Generator: Adobe Illustrator 29.8.0, SVG Export Plug-In . SVG Version: 2.1.1 Build 160)  -->
  <defs>
    <style>
      .st0 {
        fill: #fff;
      }

      .st1 {
        fill: #23345d;
      }
    </style>
  </defs>
  <path class="st0" d="M216.8,10.6c34.2,0,68.3,13.8,93.2,41,46.9,51.4,43.3,131.3-8,178.2-24.9,22.7-57.1,34.4-90.8,32.9-33.7-1.5-64.7-16.1-87.4-40.9-46.9-51.4-43.3-131.3,8.1-178.2h0c24.2-22.1,54.6-33,85-33h0ZM217,251.9c28.8,0,56.2-10.6,77.6-30.1,46.9-42.8,50.2-115.8,7.3-162.7-20.8-22.7-49.1-36-79.8-37.4-30.7-1.4-60.2,9.3-82.9,30-46.9,42.8-50.2,115.8-7.4,162.7,20.8,22.7,49.1,36,79.8,37.4,1.8,0,3.6.1,5.3.1h0Z"/>
  <path class="st1" d="M66.1,0C84,0,101.9,7.2,114.9,21.5c11.9,13,18,29.9,17.2,47.6-.8,17.6-8.4,33.9-21.4,45.8-13,11.9-29.9,18-47.6,17.2-17.6-.8-33.9-8.4-45.8-21.4C5.4,97.6-.7,80.7,0,63.1.9,45.4,8.5,29.2,21.5,17.3,34.2,5.7,50.1,0,66.1,0ZM66.2,127.2c15.3,0,29.8-5.6,41.1-16,12.1-11,19.1-26.1,19.8-42.4s-4.9-31.9-15.9-44c-12-13.2-28.6-19.9-45.1-19.9-14.7,0-29.5,5.3-41.2,16C12.8,32,5.8,47,5.1,63.3s4.9,31.9,15.9,44,26,19.1,42.4,19.8c.9,0,1.9,0,2.8,0h0Z"/>
</svg>