<?xml version="1.0" encoding="UTF-8"?>
<svg id="Layer_1" data-name="Layer 1" xmlns="http://www.w3.org/2000/svg" viewBox="0 0 342.94 262.88">
  <defs>
    <style>
      .cls-1 {
        fill: #23345d;
      }

      .cls-2 {
        fill: #0fa84f;
      }
    </style>
  </defs>
  <path class="cls-1" d="M276.86,262.88c-17.94,0-35.81-7.24-48.83-21.49-11.91-13.04-18.03-29.93-17.23-47.57.8-17.64,8.42-33.91,21.45-45.82,13.04-11.91,29.94-18.03,47.57-17.23,17.64.8,33.91,8.42,45.82,21.45,11.91,13.04,18.03,29.93,17.23,47.57-.8,17.64-8.42,33.91-21.45,45.82-12.66,11.56-28.63,17.27-44.56,17.27ZM276.77,135.69c-15.28,0-29.8,5.62-41.15,15.99-12.05,11.01-19.09,26.05-19.83,42.36-.74,16.31,4.92,31.92,15.93,43.97,12.04,13.17,28.56,19.86,45.14,19.87,14.72,0,29.49-5.27,41.19-15.96,12.05-11.01,19.09-26.05,19.83-42.36.74-16.31-4.92-31.92-15.93-43.97s-26.05-19.09-42.36-19.83c-.94-.04-1.88-.06-2.82-.06Z"/>
  <path class="cls-2" d="M126.16,252.26c-34.23,0-68.35-13.81-93.2-41.01C-13.96,159.89-10.35,79.94,41.01,33.02,65.89,10.29,98.12-1.39,131.8.13c33.66,1.52,64.72,16.06,87.45,40.94,46.92,51.36,43.3,131.32-8.05,178.23h0c-24.16,22.07-54.64,32.96-85.04,32.96ZM125.98,11c-28.79,0-56.15,10.59-77.55,30.14C1.55,83.97-1.75,156.95,41.08,203.83c20.75,22.71,49.1,35.98,79.82,37.37,30.73,1.4,60.16-9.27,82.87-30.02,46.88-42.83,50.18-115.81,7.35-162.69-20.75-22.71-49.1-35.98-79.82-37.37-1.78-.08-3.56-.12-5.32-.12Z"/>
</svg>