<?xml version="1.0" encoding="UTF-8"?>
<svg id="Layer_1" xmlns="http://www.w3.org/2000/svg" version="1.1" viewBox="0 0 252.2 262.9">
  <!-- Generator: Adobe Illustrator 29.8.0, SVG Export Plug-In . SVG Version: 2.1.1 Build 160)  -->
  <defs>
    <style>
      .st0 {
        fill: #fff;
      }
    </style>
  </defs>
  <path class="st0" d="M126.2,252.3c-34.2,0-68.3-13.8-93.2-41C-14,159.9-10.4,79.9,41,33,65.9,10.3,98.1-1.4,131.8.1c33.7,1.5,64.7,16.1,87.4,40.9,46.9,51.4,43.3,131.3-8.1,178.2h0c-24.2,22.1-54.6,33-85,33h0ZM126,11c-28.8,0-56.2,10.6-77.6,30.1C1.5,84-1.8,156.9,41.1,203.8c20.8,22.7,49.1,36,79.8,37.4,30.7,1.4,60.2-9.3,82.9-30,46.9-42.8,50.2-115.8,7.4-162.7-20.8-22.7-49.1-36-79.8-37.4-1.8,0-3.6-.1-5.3-.1h0Z"/>
</svg>